erDiagram
    BOOK {
        int book_id PK
        varchar(50) title
        varchar(50) author
        int stock
    }
    BOOKLOAN {
        int book_id FK
        int loan_id FK
    }
    LOAN {
        int loan_id PK
        int user_id FK
        datetime dateborrowed
        datetime datereturned
    }
    USER {
        int user_id PK
        varchar(50) name
        varchar(50) address
        varchar(50) phone
        varchar(50) email
    }

    BOOK ||--|{ BOOKLOAN : has
    LOAN ||--|{ BOOKLOAN : has
    LOAN }|--|| USER : has